<svg width="1052" height="12" viewBox="0 0 1052 12" fill="none" xmlns="http://www.w3.org/2000/svg">
<path d="M0 0L5.6 12H16.6L11 0H0Z" fill="#A3FF12"/>
<path d="M15 0L20.6 12H31.6L26 0H15Z" fill="#A3FF12"/>
<path d="M30 0L35.6 12H46.6L41 0H30Z" fill="#A3FF12"/>
<path d="M45 0L50.6 12H61.6L56 0H45Z" fill="#A3FF12"/>
<path d="M60 0L65.6 12H76.6L71 0H60Z" fill="#A3FF12"/>
<path d="M75 0L80.6 12H91.6L86 0H75Z" fill="#A3FF12"/>
<path d="M90 0L95.6 12H106.6L101 0H90Z" fill="#A3FF12"/>
<path d="M105 0L110.6 12H121.6L116 0H105Z" fill="#A3FF12"/>
<path d="M120 0L125.6 12H136.6L131 0H120Z" fill="#A3FF12"/>
<path d="M135 0L140.6 12H151.6L146 0H135Z" fill="#A3FF12"/>
<path d="M150 0L155.6 12H166.6L161 0H150Z" fill="#A3FF12"/>
<path d="M165 0L170.6 12H181.6L176 0H165Z" fill="#A3FF12"/>
<path d="M180 0L185.6 12H196.6L191 0H180Z" fill="#A3FF12"/>
<path d="M195 0L200.6 12H211.6L206 0H195Z" fill="#A3FF12"/>
<path d="M210 0L215.6 12H226.6L221 0H210Z" fill="#A3FF12"/>
<path d="M225 0L230.6 12H241.6L236 0H225Z" fill="#A3FF12"/>
<path d="M240 0L245.6 12H256.6L251 0H240Z" fill="#A3FF12"/>
<path d="M255 0L260.6 12H271.6L266 0H255Z" fill="#A3FF12"/>
<path d="M270 0L275.6 12H286.6L281 0H270Z" fill="#A3FF12"/>
<path d="M285 0L290.6 12H301.6L296 0H285Z" fill="#A3FF12"/>
<path d="M300 0L305.6 12H316.6L311 0H300Z" fill="#A3FF12"/>
<path d="M315 0L320.6 12H331.6L326 0H315Z" fill="#A3FF12"/>
<path d="M330 0L335.6 12H346.6L341 0H330Z" fill="#A3FF12"/>
<path d="M345 0L350.6 12H361.6L356 0H345Z" fill="#A3FF12"/>
<path d="M360 0L365.6 12H376.6L371 0H360Z" fill="#A3FF12"/>
<path d="M375 0L380.6 12H391.6L386 0H375Z" fill="#A3FF12"/>
<path d="M390 0L395.6 12H406.6L401 0H390Z" fill="#A3FF12"/>
<path d="M405 0L410.6 12H421.6L416 0H405Z" fill="white" fill-opacity="0.1"/>
<path d="M420 0L425.6 12H436.6L431 0H420Z" fill="white" fill-opacity="0.1"/>
<path d="M435 0L440.6 12H451.6L446 0H435Z" fill="white" fill-opacity="0.1"/>
<path d="M450 0L455.6 12H466.6L461 0H450Z" fill="white" fill-opacity="0.1"/>
<path d="M465 0L470.6 12H481.6L476 0H465Z" fill="white" fill-opacity="0.1"/>
<path d="M480 0L485.6 12H496.6L491 0H480Z" fill="white" fill-opacity="0.1"/>
<path d="M495 0L500.6 12H511.6L506 0H495Z" fill="white" fill-opacity="0.1"/>
<path d="M510 0L515.6 12H526.6L521 0H510Z" fill="white" fill-opacity="0.1"/>
<path d="M525 0L530.6 12H541.6L536 0H525Z" fill="white" fill-opacity="0.1"/>
<path d="M540 0L545.6 12H556.6L551 0H540Z" fill="white" fill-opacity="0.1"/>
<path d="M555 0L560.6 12H571.6L566 0H555Z" fill="white" fill-opacity="0.1"/>
<path d="M570 0L575.6 12H586.6L581 0H570Z" fill="white" fill-opacity="0.1"/>
<path d="M585 0L590.6 12H601.6L596 0H585Z" fill="white" fill-opacity="0.1"/>
<path d="M600 0L605.6 12H616.6L611 0H600Z" fill="white" fill-opacity="0.1"/>
<path d="M615 0L620.6 12H631.6L626 0H615Z" fill="white" fill-opacity="0.1"/>
<path d="M630 0L635.6 12H646.6L641 0H630Z" fill="white" fill-opacity="0.1"/>
<path d="M645 0L650.6 12H661.6L656 0H645Z" fill="white" fill-opacity="0.1"/>
<path d="M660 0L665.6 12H676.6L671 0H660Z" fill="white" fill-opacity="0.1"/>
<path d="M675 0L680.6 12H691.6L686 0H675Z" fill="white" fill-opacity="0.1"/>
<path d="M690 0L695.6 12H706.6L701 0H690Z" fill="white" fill-opacity="0.1"/>
<path d="M705 0L710.6 12H721.6L716 0H705Z" fill="white" fill-opacity="0.1"/>
<path d="M720 0L725.6 12H736.6L731 0H720Z" fill="white" fill-opacity="0.1"/>
<path d="M735 0L740.6 12H751.6L746 0H735Z" fill="white" fill-opacity="0.1"/>
<path d="M750 0L755.6 12H766.6L761 0H750Z" fill="white" fill-opacity="0.1"/>
<path d="M765 0L770.6 12H781.6L776 0H765Z" fill="white" fill-opacity="0.1"/>
<path d="M780 0L785.6 12H796.6L791 0H780Z" fill="white" fill-opacity="0.1"/>
<path d="M795 0L800.6 12H811.6L806 0H795Z" fill="white" fill-opacity="0.1"/>
<path d="M810 0L815.6 12H826.6L821 0H810Z" fill="white" fill-opacity="0.1"/>
<path d="M825 0L830.6 12H841.6L836 0H825Z" fill="white" fill-opacity="0.1"/>
<path d="M840 0L845.6 12H856.6L851 0H840Z" fill="white" fill-opacity="0.1"/>
<path d="M855 0L860.6 12H871.6L866 0H855Z" fill="white" fill-opacity="0.1"/>
<path d="M870 0L875.6 12H886.6L881 0H870Z" fill="white" fill-opacity="0.1"/>
<path d="M885 0L890.6 12H901.6L896 0H885Z" fill="white" fill-opacity="0.1"/>
<path d="M900 0L905.6 12H916.6L911 0H900Z" fill="white" fill-opacity="0.1"/>
<path d="M915 0L920.6 12H931.6L926 0H915Z" fill="white" fill-opacity="0.1"/>
<path d="M930 0L935.6 12H946.6L941 0H930Z" fill="white" fill-opacity="0.1"/>
<path d="M945 0L950.6 12H961.6L956 0H945Z" fill="white" fill-opacity="0.1"/>
<path d="M960 0L965.6 12H976.6L971 0H960Z" fill="white" fill-opacity="0.1"/>
<path d="M975 0L980.6 12H991.6L986 0H975Z" fill="white" fill-opacity="0.1"/>
<path d="M990 0L995.6 12H1006.6L1001 0H990Z" fill="white" fill-opacity="0.1"/>
<path d="M1005 0L1010.6 12H1021.6L1016 0H1005Z" fill="white" fill-opacity="0.1"/>
<path d="M1020 0L1025.6 12H1036.6L1031 0H1020Z" fill="white" fill-opacity="0.1"/>
<path d="M1035 0L1040.6 12H1051.6L1046 0H1035Z" fill="white" fill-opacity="0.1"/>
</svg>
