<svg width="76" height="72" viewBox="0 0 76 72" fill="none" xmlns="http://www.w3.org/2000/svg">
<path d="M75.3251 22.6148C74.9718 15.5477 72.8516 9.89399 68.9647 6.36042C64.371 2.12014 57.6573 0 48.47 0H0.413452V19.788H41.4029C47.0566 19.788 49.8834 22.6148 49.8834 28.2686V31.0954C49.8834 36.7491 47.0566 39.576 41.4029 39.576H14.5477V59.364H44.2297C49.8834 59.364 52.7103 62.1908 52.7103 67.8445V71.0247L63.6643 47.7032C62.9576 47.3498 61.8975 46.9965 61.1908 46.9965C62.6043 46.6431 63.6643 45.9364 64.7244 45.2297L75.3251 22.6148Z" fill="url(#paint0_linear_1312_242)" fill-opacity="0.5"/>
<defs>
<linearGradient id="paint0_linear_1312_242" x1="-36.0653" y1="1.56282e-07" x2="-17.0822" y2="83.5152" gradientUnits="userSpaceOnUse">
<stop offset="0.510417" stop-color="#6D4AFE"/>
<stop offset="1" stop-color="#090A1A"/>
</linearGradient>
</defs>
</svg>
