<svg width="60" height="60" viewBox="0 0 60 60" fill="none" xmlns="http://www.w3.org/2000/svg">
<path d="M0 0V17.2L8 0H0Z" fill="#6D4AFE"/>
<path d="M60 59.9998V42.7998L52 59.9998H60Z" fill="#6D4AFE"/>
<path d="M13.9 0L0 29.9V60H46.1L60 30.1V0H13.9Z" fill="#6D4AFE"/>
<g clip-path="url(#clip0_1312_1921)">
<path d="M23.8003 31.2999C23.7003 32.9999 25.0003 34.3999 26.7003 34.4999C28.4003 34.3999 29.7003 32.8999 29.6003 31.1999C29.7003 29.4999 28.4003 27.9999 26.7003 27.8999C25.0003 28.0999 23.7003 29.5999 23.8003 31.2999ZM27.5003 31.2999C27.5003 31.9999 27.1003 32.5999 26.6003 32.5999C26.1003 32.5999 25.7003 31.9999 25.7003 31.2999C25.7003 30.5999 26.2003 29.9999 26.7003 29.9999C27.2003 29.9999 27.5003 30.5999 27.5003 31.2999Z" fill="white"/>
<path d="M33.2003 28C31.5003 28.1 30.2003 29.6 30.3003 31.3C30.2003 33 31.5003 34.4 33.2003 34.6C34.9003 34.5 36.2003 33 36.1003 31.3C36.2003 29.6 34.9003 28.1 33.2003 28ZM33.2003 32.5C32.7003 32.5 32.3003 31.9 32.3003 31.2C32.3003 30.5 32.7003 29.9 33.2003 29.9C33.7003 29.9 34.1003 30.5 34.1003 31.2C34.1003 31.9 33.7003 32.5 33.2003 32.5Z" fill="white"/>
<path d="M40.6 24.3999C40.5 24.2999 40.5 24.1999 40.5 24.1999C38.8 22.0999 36.4 20.5999 33.7 19.9999C33.2 19.7999 32.6 20.1999 32.5 20.6999C32.4 21.1999 32.7 21.7999 33.2 21.8999C33.2 21.8999 33.2 21.8999 33.3 21.8999C35.5 22.3999 37.5 23.5999 38.9 25.2999C40.2 28.3999 41 31.6999 41 35.0999C39.6 36.3999 37.9 37.2999 36 37.5999V37.1999C36 37.1999 36 37.1999 36 37.0999C37.2 36.5999 38.4 35.9999 39.4 35.0999C39.8 34.7999 39.9 34.0999 39.6 33.6999C39.3 33.2999 38.6 33.1999 38.2 33.4999C35.9 35.2999 33 36.1999 30 36.0999C27.1 36.1999 24.2 35.2999 21.9 33.4999C21.5 33.1999 20.8 33.1999 20.5 33.6999C20.2 34.1999 20.2 34.7999 20.7 35.0999C21.7 35.8999 22.9 36.5999 24.1 37.0999V37.5999C22.2 37.2999 20.5 36.3999 19.1 35.0999C19.1 31.6999 19.8 28.3999 21.2 25.2999C22.5 23.5999 24.5 22.4999 26.7 21.9999C27.2 21.7999 27.5 21.2999 27.4 20.7999C27.3 20.1999 26.8 19.8999 26.2 19.9999C23.5 20.5999 21.1 21.9999 19.4 24.1999V24.2999V24.3999C17.4 28.3999 17.2 31.9999 17 35.4999C17 35.7999 17.1 36.0999 17.3 36.2999C19.3 38.3999 22 39.5999 24.9 39.8999C25.2 39.8999 25.4 39.7999 25.6 39.5999C25.8 39.3999 25.9 39.1999 25.9 38.8999V37.8999C28.5 38.4999 31.3 38.4999 33.9 37.8999V38.8999C33.9 39.1999 34 39.3999 34.2 39.5999C34.4 39.7999 34.6 39.8999 34.9 39.8999C37.8 39.6999 40.6 38.4999 42.6 36.3999C42.8 36.1999 42.9 35.8999 42.9 35.5999C42.7 31.9999 42.5 28.3999 40.6 24.3999Z" fill="white"/>
<path d="M37.3988 25.5999C37.6988 25.0999 37.4988 24.4999 36.9988 24.2999C34.7988 23.2999 32.3988 22.6999 29.8988 22.7999C27.4988 22.6999 24.9988 23.2999 22.7988 24.2999C22.3988 24.4999 22.1988 25.0999 22.3988 25.5999C22.6988 26.0999 23.2988 26.1999 23.7988 25.9999C25.6988 25.0999 27.7988 24.6999 29.8988 24.6999C31.9988 24.6999 34.1988 25.0999 36.0988 25.9999C36.1988 26.0999 36.3988 26.0999 36.5988 26.0999C36.8988 26.0999 37.1988 25.8999 37.3988 25.5999Z" fill="white"/>
</g>
<defs>
<clipPath id="clip0_1312_1921">
<rect width="26" height="19.8" fill="white" transform="translate(17 20)"/>
</clipPath>
</defs>
</svg>
