<svg width="60" height="60" viewBox="0 0 60 60" fill="none" xmlns="http://www.w3.org/2000/svg">
<path d="M0 0V17.2L8 0H0Z" fill="white" fill-opacity="0.1"/>
<path d="M60 59.9998V42.7998L52 59.9998H60Z" fill="white" fill-opacity="0.1"/>
<path d="M13.9 0L0 29.9V60H46.1L60 30.1V0H13.9Z" fill="white" fill-opacity="0.15"/>
<g clip-path="url(#clip0_1312_1220)">
<path d="M36.2 20H23.8C21.7 20 20 21.7 20 23.8V36.1C20 38.3 21.7 40 23.8 40H30C30.4 40 30.8 39.7 30.8 39.2V33C30.8 32.6 30.5 32.2 30 32.2H29.2V30.7H30C30.4 30.7 30.8 30.4 30.8 29.9V27.3C30.8 26.2 31.7 25.4 32.7 25.4H34.6V26.9H33.8C33 26.9 32.3 27.6 32.3 28.4V30C32.3 30.4 32.6 30.8 33.1 30.8H34.4L34 32.3H33.1C32.7 32.3 32.3 32.6 32.3 33.1V36.2C32.3 36.6 32.6 37 33.1 37C33.5 37 33.9 36.7 33.9 36.2V33.9H34.7C35.1 33.9 35.4 33.7 35.5 33.3L36.3 30.2C36.4 30 36.3 29.7 36.2 29.5C36 29.3 35.8 29.2 35.6 29.2H34.1V28.5H35.6C36 28.5 36.4 28.2 36.4 27.7V24.6C36.4 24.2 36.1 23.8 35.6 23.8H32.9C31 23.8 29.4 25.4 29.4 27.3V29.2H28.5C28 29.2 27.7 29.6 27.7 30V33.1C27.7 33.5 28 33.9 28.5 33.9H29.3V38.5H23.8C22.5 38.5 21.5 37.5 21.5 36.2V23.8C21.5 22.5 22.5 21.5 23.8 21.5H36.1C37.4 21.5 38.4 22.5 38.4 23.8V36.1C38.4 37.4 37.4 38.4 36.1 38.4H33C32.6 38.4 32.2 38.7 32.2 39.2C32.2 39.6 32.5 40 33 40H36.1C38.2 40 39.9 38.3 39.9 36.2V23.8C40 21.7 38.3 20 36.2 20Z" fill="white"/>
</g>
<defs>
<clipPath id="clip0_1312_1220">
<rect width="20" height="20" fill="white" transform="translate(20 20)"/>
</clipPath>
</defs>
</svg>
