<svg width="74" height="90" viewBox="0 0 74 90" fill="none" xmlns="http://www.w3.org/2000/svg">
<path d="M71.5935 41.9142C70.271 41.9142 69.2424 40.8489 69.2424 39.5632C69.2424 38.2775 70.3077 37.2122 71.5935 37.2122C72.9159 37.2122 73.9445 38.2775 73.9445 39.5632C73.9445 40.8489 72.9159 41.9142 71.5935 41.9142ZM71.5935 38.755C71.1526 38.755 70.822 39.1224 70.822 39.5264C70.822 39.9305 71.1894 40.2979 71.5935 40.2979C72.0343 40.2979 72.3649 39.9305 72.3649 39.5264C72.3649 39.1224 72.0343 38.755 71.5935 38.755Z" fill="#F82552"/>
<path d="M67.1118 60.0246C66.671 60.0246 66.2669 59.8409 65.9731 59.547L52.7486 45.6613C52.1241 45.0368 52.1241 44.045 52.7486 43.4205C53.3731 42.796 54.3649 42.796 54.9894 43.4205C55.0261 43.4573 55.0261 43.4573 55.0629 43.494L68.2874 57.3797C68.8751 58.0042 68.8751 58.996 68.2139 59.6205C67.92 59.8409 67.5159 60.0246 67.1118 60.0246Z" fill="#F82552"/>
<path d="M27.2179 79.3836C26.4465 79.3836 25.7853 78.8325 25.6751 78.0611L22.5894 58.4815C22.4424 57.5999 23.0669 56.7917 23.9118 56.6448C24.7934 56.4978 25.6016 57.1223 25.7485 57.9672L28.8343 77.5468C28.9812 78.3917 28.3934 79.1999 27.5118 79.3468L27.2179 79.3836Z" fill="#F82552"/>
<path d="M6.16895 71.1552C4.8465 71.1552 3.81793 70.0899 3.81793 68.8042C3.81793 67.4817 4.88324 66.4531 6.16895 66.4531C7.4914 66.4531 8.51997 67.5184 8.51997 68.8042C8.51997 70.0899 7.45467 71.1552 6.16895 71.1552ZM6.16895 67.996C5.72814 67.996 5.39752 68.3633 5.39752 68.7674C5.39752 69.1715 5.76487 69.5388 6.16895 69.5388C6.60977 69.5388 6.94038 69.1715 6.94038 68.7674C6.94038 68.3633 6.60977 67.996 6.16895 67.996Z" fill="#F82552"/>
<path d="M57.0098 90C56.3853 90 55.8343 89.6327 55.5771 89.0817L40.2955 56.5715C39.9649 55.7633 40.3322 54.8449 41.1404 54.5143C41.9118 54.1837 42.7567 54.5143 43.1608 55.249L58.4792 87.7592C58.8465 88.5306 58.5159 89.4857 57.7077 89.8531C57.4873 89.9633 57.2669 90 57.0098 90Z" fill="#F82552"/>
<path d="M5.50772 39.9672C1.65058 25.7142 10.0996 11.0203 24.3526 7.16314C35.1526 4.22437 46.6506 8.37539 53.1526 17.5223L50.5812 19.3591C43.0138 8.74273 28.2832 6.24477 17.6669 13.7754C9.62201 19.506 5.98527 29.608 8.5567 39.1223L5.50772 39.9672Z" fill="#F82552"/>
<path d="M31.2955 59.7307C23.6179 59.7307 16.3077 56.4246 11.2383 50.6572L13.6261 48.5633C22.222 58.3715 37.1363 59.3266 46.9077 50.7307C52.969 45.4042 55.871 37.396 54.6588 29.4246L57.8179 28.947C60.0588 43.5674 49.9934 57.196 35.4098 59.4368C34.0506 59.6572 32.7281 59.7307 31.369 59.7307H31.2955Z" fill="#F82552"/>
<path d="M18.2914 12.4163C14.8751 12.4163 12.0833 9.62449 12.0833 6.20816C12.0833 2.79184 14.8751 0 18.2914 0C19.0261 0 19.7241 0.110204 20.3853 0.367347C23.6179 1.54286 25.3077 5.06939 24.1322 8.30204C23.2506 10.7633 20.9363 12.4163 18.2914 12.4163ZM18.2914 3.15918C16.6016 3.15918 15.2424 4.51837 15.2424 6.20816C15.2424 7.89796 16.6016 9.25714 18.2914 9.25714C19.9812 9.25714 21.3404 7.89796 21.3404 6.20816C21.3404 4.92245 20.5322 3.78367 19.3567 3.34286C19.0261 3.23265 18.6588 3.15918 18.2914 3.15918Z" fill="#F82552"/>
<path d="M6.97713 52.4939C6.38937 52.4939 5.87508 52.1633 5.58121 51.649L0.181207 41.6204C-0.222875 40.849 0.0710032 39.8939 0.842432 39.4898C0.952636 39.4163 1.09957 39.3796 1.24651 39.3429C20.422 35.0816 38.4955 26.8163 54.2914 15.1347C54.9894 14.6204 55.9812 14.7674 56.4955 15.4653C56.5322 15.5388 56.569 15.5755 56.6057 15.649L62.0057 25.6776C62.373 26.3755 62.1894 27.2204 61.5649 27.698C45.4016 39.6367 26.9241 48.0857 7.34447 52.4572C7.19753 52.4939 7.08733 52.5306 6.97713 52.4939ZM3.96488 41.9878L7.82202 49.151C26.1159 44.8898 43.3812 37.0286 58.5894 26.0082L54.769 18.7714C39.5241 29.7551 22.2955 37.6531 4.03835 41.9878H3.96488Z" fill="#F82552"/>
<path d="M15.5363 30.0491C14.6547 30.0491 13.9567 29.3511 13.9567 28.4695C13.9567 28.3593 13.9567 28.2491 13.9935 28.1389C15.2424 22.5552 19.32 18.0369 24.72 16.2369C25.5282 15.943 26.4465 16.3838 26.7404 17.192C27.0343 18.0001 26.5935 18.9185 25.7853 19.2124C21.4139 20.6818 18.1077 24.3185 17.1159 28.8369C16.9322 29.5716 16.271 30.0858 15.5363 30.0491Z" fill="white"/>
</svg>
