<svg width="60" height="60" viewBox="0 0 60 60" fill="none" xmlns="http://www.w3.org/2000/svg">
<path d="M0 0V17.2L8 0H0Z" fill="white" fill-opacity="0.1"/>
<path d="M60 59.9998V42.7998L52 59.9998H60Z" fill="white" fill-opacity="0.1"/>
<path d="M13.9 0L0 29.9V60H46.1L60 30.1V0H13.9Z" fill="white" fill-opacity="0.15"/>
<g clip-path="url(#clip0_1312_1210)">
<path d="M33.599 27.8C33.199 28 32.999 28.4 33.099 28.8C33.699 30.5 32.899 32.3 31.199 33C29.499 33.6 27.699 32.8 26.999 31.1C26.299 29.4 27.199 27.7 28.899 27C29.599 26.7 30.499 26.7 31.199 27C31.599 27.2 32.099 26.9 32.199 26.5C32.399 26.1 32.099 25.6 31.699 25.5C29.199 24.5 26.399 25.8 25.399 28.3C24.699 30.1 25.199 32.1 26.499 33.5C28.399 35.4 31.499 35.4 33.399 33.5C34.799 32.1 35.199 30.1 34.499 28.3C34.499 27.9 33.999 27.7 33.599 27.8Z" fill="white"/>
<path d="M35.6008 25.1C36.0426 25.1 36.4008 24.7418 36.4008 24.3C36.4008 23.8582 36.0426 23.5 35.6008 23.5C35.159 23.5 34.8008 23.8582 34.8008 24.3C34.8008 24.7418 35.159 25.1 35.6008 25.1Z" fill="white"/>
<path d="M39.6996 24.3001C39.6996 22.1001 37.8996 20.3001 35.6996 20.2001C31.8996 19.9001 28.0996 19.9001 24.2996 20.2001C22.0996 20.2001 20.2996 22.0001 20.1996 24.2001C19.8996 28.0001 19.8996 31.8001 20.1996 35.6001C20.1996 37.8001 21.9996 39.6001 24.1996 39.7001C26.0996 39.9001 27.9996 40.0001 29.9996 40.0001C31.9996 40.0001 33.7996 39.9001 35.6996 39.7001C37.8996 39.7001 39.6996 37.9001 39.6996 35.7001C39.9996 31.9001 39.9996 28.1001 39.6996 24.3001ZM38.0996 35.7001C38.0996 37.0001 36.9996 38.1001 35.6996 38.1001H35.5996C31.8996 38.5001 28.0996 38.5001 24.2996 38.1001C22.9996 38.1001 21.8996 37.0001 21.8996 35.7001C21.8996 35.7001 21.8996 35.7001 21.8996 35.6001C21.5996 31.8001 21.5996 28.1001 21.8996 24.3001C21.8996 23.0001 22.9996 21.9001 24.2996 21.9001C24.2996 21.9001 24.2996 21.9001 24.3996 21.9001C26.2996 21.7001 28.0996 21.6001 29.9996 21.6001C31.8996 21.6001 33.7996 21.7001 35.6996 21.9001C36.9996 21.9001 38.0996 23.0001 38.0996 24.3001C38.0996 24.3001 38.0996 24.3001 38.0996 24.4001C38.3996 28.1001 38.3996 31.9001 38.0996 35.7001Z" fill="white"/>
</g>
<defs>
<clipPath id="clip0_1312_1210">
<rect width="19.9" height="20" fill="white" transform="translate(20 20)"/>
</clipPath>
</defs>
</svg>
