<svg width="60" height="60" viewBox="0 0 60 60" fill="none" xmlns="http://www.w3.org/2000/svg">
<path d="M0 0V17.2L8 0H0Z" fill="white" fill-opacity="0.1"/>
<path d="M60 59.9998V42.7998L52 59.9998H60Z" fill="white" fill-opacity="0.1"/>
<path d="M13.9 0L0 29.9V60H46.1L60 30.1V0H13.9Z" fill="white" fill-opacity="0.15"/>
<g clip-path="url(#clip0_1312_1200)">
<path d="M22.7 20C21.2 20 20 21.2 20 22.7C20 24.2 21.2 25.4 22.7 25.4C24.2 25.4 25.4 24.2 25.4 22.7C25.4 21.2 24.2 20 22.7 20ZM22.7 23.8C22.1 23.8 21.5 23.3 21.5 22.6C21.5 21.9 22 21.4 22.7 21.4C23.4 21.4 23.9 21.9 23.9 22.6C23.9 23.3 23.3 23.8 22.7 23.8Z" fill="white"/>
<path d="M24.6 26.2002H20.8C20.3 26.2002 20 26.5002 20 26.9002C20 27.3002 20.3 27.7002 20.8 27.7002H23.9V38.5002H21.5V30.0002C21.5 29.6002 21.2 29.2002 20.7 29.2002C20.2 29.2002 20 29.6002 20 30.0002V39.2002C20 39.7002 20.3 40.0002 20.8 40.0002H24.6C25 40.0002 25.4 39.7002 25.4 39.2002V26.9002C25.4 26.5002 25 26.2002 24.6 26.2002Z" fill="white"/>
<path d="M38.6996 27.4001C37.7996 26.5001 36.5996 26.1001 35.3996 26.1001H34.5996C33.4996 26.1001 32.4996 26.3001 31.4996 26.8001C31.4996 26.4001 31.0996 26.1001 30.6996 26.1001H26.8996C26.4996 26.1001 26.0996 26.4001 26.0996 26.9001V39.2001C26.0996 39.6001 26.3996 40.0001 26.8996 40.0001H30.6996C31.0996 40.0001 31.4996 39.7001 31.4996 39.2001V32.3001C31.4996 31.5001 32.1996 30.8001 32.9996 30.8001C33.7996 30.8001 34.4996 31.5001 34.4996 32.3001V39.2001C34.4996 39.6001 34.7996 40.0001 35.2996 40.0001H39.0996C39.4996 40.0001 39.8996 39.7001 39.8996 39.2001V30.7001C39.9996 29.5001 39.5996 28.3001 38.6996 27.4001ZM38.4996 38.5001H36.1996V32.3001C36.1996 30.6001 34.7996 29.2001 33.0996 29.2001C31.3996 29.2001 29.9996 30.6001 29.9996 32.3001V38.5001H27.6996V27.7001H29.9996V28.5001C29.9996 28.8001 30.1996 29.1001 30.4996 29.2001C30.7996 29.3001 31.0996 29.3001 31.2996 29.0001C31.9996 28.2001 32.5996 27.7001 34.5996 27.7001H35.3996C36.1996 27.7001 36.9996 28.0001 37.5996 28.5001C38.1996 29.1001 38.4996 29.9001 38.3996 30.7001V38.5001H38.4996Z" fill="white"/>
</g>
<defs>
<clipPath id="clip0_1312_1200">
<rect width="20" height="20" fill="white" transform="translate(20 20)"/>
</clipPath>
</defs>
</svg>
