<svg width="60" height="60" viewBox="0 0 60 60" fill="none" xmlns="http://www.w3.org/2000/svg">
<path d="M0 0V17.2L8 0H0Z" fill="white" fill-opacity="0.1"/>
<path d="M60 59.9998V42.7998L52 59.9998H60Z" fill="white" fill-opacity="0.1"/>
<path d="M13.9 0L0 29.9V60H46.1L60 30.1V0H13.9Z" fill="white" fill-opacity="0.15"/>
<g clip-path="url(#clip0_1312_1177)">
<path d="M43 35.9C42.6 35.5 42 33.6 42 30C42 26.4 42.6 24.4 42.9 24.1C43.3 24.5 43.8 26.6 43.8 30C43.9 33.6 43.3 35.5 43 35.9Z" stroke="white" stroke-width="2" stroke-miterlimit="10" stroke-linecap="round" stroke-linejoin="round"/>
<path d="M36.4992 36.5999C34.6992 36.5999 33.1992 33.5999 33.1992 29.9999C33.1992 27.4999 33.8992 25.1999 34.9992 24.0999C35.4992 23.5999 35.9992 23.3999 36.4992 23.3999C37.2992 23.3999 38.1992 24.0999 38.7992 25.1999C39.4992 26.4999 39.8992 28.1999 39.8992 29.9999C39.8992 33.5999 38.2992 36.5999 36.4992 36.5999Z" stroke="white" stroke-width="2" stroke-miterlimit="10" stroke-linecap="round" stroke-linejoin="round"/>
<path d="M23.9 37C20.1 37 17 33.9 17 30C17 28.1 17.7 26.4 19 25C20.3 23.7 22.1 23 23.9 23C25.8 23 27.5 23.7 28.8 25.1C30.1 26.4 30.8 28.2 30.8 30.1C30.9 33.9 27.7 37 23.9 37Z" stroke="white" stroke-width="2" stroke-miterlimit="10" stroke-linecap="round" stroke-linejoin="round"/>
</g>
<defs>
<clipPath id="clip0_1312_1177">
<rect width="28.9" height="16" fill="white" transform="translate(16 22)"/>
</clipPath>
</defs>
</svg>
