<svg width="60" height="60" viewBox="0 0 60 60" fill="none" xmlns="http://www.w3.org/2000/svg">
<path d="M0 0V17.2L8 0H0Z" fill="white" fill-opacity="0.1"/>
<path d="M60 59.9998V42.7998L52 59.9998H60Z" fill="white" fill-opacity="0.1"/>
<path d="M13.9 0L0 29.9V60H46.1L60 30.1V0H13.9Z" fill="white" fill-opacity="0.15"/>
<path d="M41.1569 20.4444C40.6569 20.0444 39.8569 19.8444 39.2569 20.1444L19.9569 27.9444C19.1569 28.2444 18.7569 29.1444 19.1569 29.9444C19.3569 30.3444 19.6569 30.6444 19.9569 30.7444L21.1569 31.2444C21.5569 31.4444 22.0569 31.2444 22.2569 30.8444C22.4569 30.4444 22.2569 29.9444 21.7569 29.7444L20.9569 29.3444L39.8569 21.7444C39.9569 21.7444 39.9569 21.7444 40.0569 21.7444C40.1569 21.7444 40.1569 21.8444 40.1569 21.9444L36.7569 38.0444C36.7569 38.1444 36.6569 38.2444 36.5569 38.3444C36.4569 38.3444 36.3569 38.3444 36.2569 38.2444L29.4569 33.0444L36.0569 26.3444C36.3569 26.0444 36.3569 25.4444 36.0569 25.1444C35.7569 24.8444 35.3569 24.8444 35.0569 25.0444L25.3569 30.7444C24.9569 30.9444 24.7569 31.4444 24.9569 31.8444C25.1569 32.2444 25.6569 32.4444 26.0569 32.2444C26.1569 32.2444 26.1569 32.1444 26.1569 32.1444L30.2569 29.7444L28.2569 31.7444C27.5569 32.3444 27.5569 33.4444 28.1569 34.1444C28.2569 34.2444 28.3569 34.2444 28.3569 34.3444L35.0569 39.5444C35.4569 39.8444 35.8569 39.9444 36.2569 39.9444C36.4569 39.9444 36.7569 39.9444 36.9569 39.8444C37.6569 39.6444 38.0569 39.0444 38.2569 38.3444L41.6569 22.2444C41.9569 21.6444 41.7569 20.9444 41.1569 20.4444Z" fill="white"/>
</svg>
