<svg width="60" height="60" viewBox="0 0 60 60" fill="none" xmlns="http://www.w3.org/2000/svg">
<path d="M0 0V17.2L8 0H0Z" fill="white" fill-opacity="0.1"/>
<path d="M60 59.9998V42.7998L52 59.9998H60Z" fill="white" fill-opacity="0.1"/>
<path d="M13.9 0L0 29.9V60H46.1L60 30.1V0H13.9Z" fill="white" fill-opacity="0.15"/>
<path d="M41.3004 22.9999C41.2004 22.8999 41.2004 22.8999 41.1004 22.7999C41.3004 22.3999 41.4004 21.9999 41.5004 21.5999C41.6004 21.2999 41.4004 20.8999 41.1004 20.6999C40.8004 20.4999 40.4004 20.4999 40.1004 20.6999C39.5004 21.0999 38.8004 21.3999 38.1004 21.4999C36.4004 19.8999 33.9004 19.5999 31.8004 20.5999C29.6004 21.6999 28.5004 24.1999 29.1004 26.5999C29.2004 27.0999 29.7004 27.3999 30.2004 27.2999C30.7004 27.1999 31.0004 26.6999 30.9004 26.1999C30.5004 24.5999 31.2004 22.9999 32.7004 22.1999C34.2004 21.3999 36.1004 21.7999 37.2004 23.0999C37.4004 23.2999 37.7004 23.3999 38.0004 23.2999H38.2004C37.9004 23.6999 37.9004 24.1999 38.2004 24.5999C38.3004 24.6999 38.4004 24.6999 38.5004 24.7999C38.3004 24.9999 38.1004 25.2999 38.2004 25.5999C38.5004 29.3999 36.9004 33.1999 33.9004 35.5999C30.8004 38.2999 26.5004 38.9999 22.7004 37.5999C24.2004 37.2999 25.6004 36.6999 26.7004 35.6999C26.9004 35.3999 27.0004 35.0999 26.8004 34.6999C26.6004 34.3999 26.3004 34.1999 26.0004 34.1999C25.0004 34.1999 24.0004 33.6999 23.3004 32.9999C23.6004 32.8999 23.9004 32.7999 24.2004 32.6999C24.5004 32.4999 24.7004 32.1999 24.7004 31.7999C24.7004 31.3999 24.4004 31.0999 24.0004 31.0999C22.8004 30.7999 21.8004 29.9999 21.3004 28.8999C21.5004 28.8999 21.7004 28.8999 22.0004 28.9999C22.4004 28.9999 22.7004 28.7999 22.9004 28.4999C23.0004 28.0999 22.9004 27.6999 22.6004 27.4999C21.1004 26.1999 20.8004 24.6999 21.0004 23.6999C22.7004 25.4999 24.8004 26.6999 27.2004 27.1999C27.7004 27.2999 28.2004 26.9999 28.3004 26.4999C28.4004 25.9999 28.1004 25.4999 27.6004 25.3999C25.2004 24.7999 23.1004 23.4999 21.6004 21.4999C21.4004 21.2999 21.2004 21.1999 20.9004 21.1999C20.6004 21.1999 20.4004 21.2999 20.2004 21.4999C19.0004 22.9999 18.9004 25.1999 19.9004 26.7999H19.8004C19.5004 26.8999 19.4004 27.1999 19.3004 27.4999C19.3004 28.9999 19.9004 30.4999 21.0004 31.4999C20.8004 31.6999 20.7004 32.0999 20.8004 32.3999C21.3004 33.7999 22.3004 34.8999 23.6004 35.5999C22.2004 36.0999 20.7004 36.3999 19.3004 36.3999C18.8004 36.3999 18.4004 36.7999 18.4004 37.2999C18.4004 37.5999 18.6004 37.8999 18.8004 38.0999C21.1004 39.4999 23.7004 40.2999 26.3004 40.2999C29.4004 40.2999 32.4004 39.0999 34.8004 37.0999C38.1004 34.3999 40.0004 30.3999 39.8004 26.0999C40.5004 25.5999 41.0004 24.8999 41.2004 24.0999C41.6004 23.4999 41.5004 23.1999 41.3004 22.9999Z" fill="white"/>
</svg>
